<svg xmlns="http://www.w3.org/2000/svg" width="253" height="46.8482" viewBox="0 0 253 46.8482"><defs><style>.a{fill:#0059a8;}.b{fill:#fff;}.c{fill:#cd2215;}</style></defs><rect class="a" y="31.2766" width="253" height="15.5717"/><path class="b" d="M14.9813,35.0136a4.1762,4.1762,0,0,0-4.1644.0064,3.6944,3.6944,0,0,0-1.4086,1.584,5.395,5.395,0,0,0-.49,2.3567v.4728A5.23,5.23,0,0,0,9.44,41.7292a3.6926,3.6926,0,0,0,1.412,1.5463,3.9767,3.9767,0,0,0,2.0705.54,4.0943,4.0943,0,0,0,.51-.0321l1.9466,1.5674,1.4816-1.2563-1.4361-1.1365a3.904,3.904,0,0,0,1.065-1.4384,5.3917,5.3917,0,0,0,.4186-2.1979v-.4108a5.253,5.253,0,0,0-.5093-2.3235A3.7458,3.7458,0,0,0,14.9813,35.0136Zm-3.6876,3.8985a3.7206,3.7206,0,0,1,.42-1.9379,1.4321,1.4321,0,0,1,2.3847.01,3.678,3.678,0,0,1,.4282,1.9644v.41a3.7037,3.7037,0,0,1-.4285,1.9378,1.3,1.3,0,0,1-1.1756.6463,1.32,1.32,0,0,1-1.2088-.6548,3.7778,3.7778,0,0,1-.42-1.9656Z" transform="translate(0 -0.0759)"/><path class="b" d="M23.8421,40.5036a1.6353,1.6353,0,0,1-.3165,1.1269,1.2287,1.2287,0,0,1-.9386.3364c-.8258,0-1.2383-.4474-1.2613-1.3653V34.5832H18.9686V40.56a3.12,3.12,0,0,0,.9876,2.3859,3.7987,3.7987,0,0,0,2.6308.87,4.3883,4.3883,0,0,0,1.91-.3891,2.8453,2.8453,0,0,0,1.2543-1.1441,3.4639,3.4639,0,0,0,.4359-1.7668V34.5832H23.8421Z" transform="translate(0 -0.0759)"/><path class="b" d="M30.9954,34.5832l-3.2927,8.9786-.0486.1316h2.5086l.5143-1.6653h2.8007l.52,1.6653H36.519l-3.3666-9.11Zm1.9068,5.59h-1.65l.8227-2.6629Z" transform="translate(0 -0.0759)"/><polygon class="b" points="40.465 34.507 38.12 34.507 38.12 43.618 44.206 43.618 44.206 41.769 40.465 41.769 40.465 34.507"/><rect class="b" x="46.2545" y="34.5073" width="2.3388" height="9.1102"/><polygon class="b" points="50.452 36.362 53.078 36.362 53.078 43.618 55.423 43.618 55.423 36.362 58.099 36.362 58.099 34.507 50.452 34.507 50.452 36.362"/><polygon class="b" points="63.459 38.224 61.903 34.567 61.877 34.507 59.346 34.507 62.272 40.341 62.272 43.618 64.647 43.618 64.647 40.341 67.579 34.507 65.035 34.507 63.459 38.224"/><polygon class="b" points="72.656 36.362 75.283 36.362 75.283 43.618 77.628 43.618 77.628 36.362 80.303 36.362 80.303 34.507 72.656 34.507 72.656 36.362"/><path class="b" d="M87.8514,35.0136a4.1763,4.1763,0,0,0-4.1641.0062,3.6776,3.6776,0,0,0-1.415,1.5872,5.3984,5.3984,0,0,0-.49,2.3537v.504a5.2222,5.2222,0,0,0,.528,2.277,3.6792,3.6792,0,0,0,1.4117,1.5369,3.9966,3.9966,0,0,0,2.07.5372,3.941,3.941,0,0,0,2.0805-.5561,3.6889,3.6889,0,0,0,1.412-1.5871,5.3824,5.3824,0,0,0,.4932-2.3506v-.4108a5.2516,5.2516,0,0,0-.5093-2.3235A3.7463,3.7463,0,0,0,87.8514,35.0136ZM84.17,38.6705c.0594-1.5679.5863-2.33,1.61-2.33a1.3214,1.3214,0,0,1,1.1881.6438,3.679,3.679,0,0,1,.4282,1.9644v.41a3.6764,3.6764,0,0,1-.4316,1.9376,1.3013,1.3013,0,0,1-1.1725.6465,1.3181,1.3181,0,0,1-1.2084-.6576,3.7751,3.7751,0,0,1-.42-1.9619Z" transform="translate(0 -0.0759)"/><path class="b" d="M97.7,35.0136a4.1761,4.1761,0,0,0-4.164.0062,3.6778,3.6778,0,0,0-1.4151,1.5872,5.4,5.4,0,0,0-.49,2.3537v.504a5.2222,5.2222,0,0,0,.528,2.277A3.68,3.68,0,0,0,93.57,43.2786a3.997,3.997,0,0,0,2.0706.5372,3.941,3.941,0,0,0,2.0805-.5561,3.69,3.69,0,0,0,1.412-1.5871,5.3838,5.3838,0,0,0,.4932-2.3506v-.4108a5.2516,5.2516,0,0,0-.5093-2.3235A3.7458,3.7458,0,0,0,97.7,35.0136Zm-3.6815,3.6569c.0593-1.5679.5863-2.33,1.61-2.33a1.3216,1.3216,0,0,1,1.1882.6438,3.679,3.679,0,0,1,.4282,1.9644v.41a3.6764,3.6764,0,0,1-.4317,1.9376,1.301,1.301,0,0,1-1.1724.6465,1.3181,1.3181,0,0,1-1.2084-.6576,3.7751,3.7751,0,0,1-.42-1.9619Z" transform="translate(0 -0.0759)"/><polygon class="b" points="104.075 34.507 101.73 34.507 101.73 43.618 107.816 43.618 107.816 41.769 104.075 41.769 104.075 34.507"/><path class="b" d="M114.995,34.8122a4.276,4.276,0,0,0-1.7637-.3515,4.8747,4.8747,0,0,0-1.8119.3224,2.9,2.9,0,0,0-1.2631.9132,2.2034,2.2034,0,0,0-.4515,1.3665,2.6972,2.6972,0,0,0,1.7873,2.4266,11.3365,11.3365,0,0,0,1.3833.55,4.0861,4.0861,0,0,1,1.143.5291.7828.7828,0,0,1,.2966.6577.66.66,0,0,1-.27.5673,1.2958,1.2958,0,0,1-.7833.21,1.6692,1.6692,0,0,1-1.1368-.314,1.2814,1.2814,0,0,1-.3387-.984v-.0979h-2.351v.0979a2.8818,2.8818,0,0,0,.46,1.612,3.0657,3.0657,0,0,0,1.3646,1.1011,4.9151,4.9151,0,0,0,2.002.3971,4.03,4.03,0,0,0,2.4773-.6872,2.2781,2.2781,0,0,0,.9207-1.9148,2.6546,2.6546,0,0,0-1.4939-2.3809,8.0892,8.0892,0,0,0-1.5375-.6482,4.5568,4.5568,0,0,1-1.2624-.56.688.688,0,0,1-.3287-.5434.68.68,0,0,1,.2951-.568,1.38,1.38,0,0,1,.85-.234,1.2135,1.2135,0,0,1,.8377.2749.9775.9775,0,0,1,.3011.772v.098H116.66v-.098a2.6579,2.6579,0,0,0-.4389-1.5023A2.8366,2.8366,0,0,0,114.995,34.8122Z" transform="translate(0 -0.0759)"/><polygon class="b" points="138.356 34.507 136.011 34.507 136.011 43.618 142.097 43.618 142.097 41.769 138.356 41.769 138.356 34.507"/><path class="b" d="M149.4251,35.0136a4.1763,4.1763,0,0,0-4.1641.0062,3.6776,3.6776,0,0,0-1.415,1.5872,5.3984,5.3984,0,0,0-.49,2.3537v.504a5.2208,5.2208,0,0,0,.5281,2.277,3.679,3.679,0,0,0,1.4116,1.5369,3.9966,3.9966,0,0,0,2.0705.5372,3.941,3.941,0,0,0,2.08-.5561,3.6889,3.6889,0,0,0,1.412-1.5871,5.3824,5.3824,0,0,0,.4932-2.3506v-.4108a5.2516,5.2516,0,0,0-.5093-2.3235A3.7463,3.7463,0,0,0,149.4251,35.0136Zm-3.6815,3.6569c.0593-1.5679.5862-2.33,1.61-2.33a1.3214,1.3214,0,0,1,1.1881.6438,3.679,3.679,0,0,1,.4282,1.9644v.41a3.6764,3.6764,0,0,1-.4316,1.9376,1.3013,1.3013,0,0,1-1.1725.6465,1.3181,1.3181,0,0,1-1.2084-.6576,3.7751,3.7751,0,0,1-.42-1.9619Z" transform="translate(0 -0.0759)"/><polygon class="b" points="160.45 39.702 159.295 34.507 157.313 34.507 156.176 39.698 155.241 34.588 155.226 34.507 152.887 34.507 154.827 43.618 157.207 43.618 158.299 38.871 159.414 43.618 161.8 43.618 163.733 34.507 161.4 34.507 160.45 39.702"/><polygon class="b" points="165.544 43.618 171.881 43.618 171.881 41.769 167.889 41.769 167.889 39.834 171.269 39.834 171.269 38.046 167.889 38.046 167.889 36.362 171.893 36.362 171.893 34.507 165.544 34.507 165.544 43.618"/><path class="b" d="M179.03,34.8122a4.2758,4.2758,0,0,0-1.7636-.3515,4.8743,4.8743,0,0,0-1.8119.3224,2.9012,2.9012,0,0,0-1.2632.9132,2.2034,2.2034,0,0,0-.4515,1.3665,2.6972,2.6972,0,0,0,1.7874,2.4266,11.33,11.33,0,0,0,1.3833.55,4.0889,4.0889,0,0,1,1.143.5291.783.783,0,0,1,.2965.6577.66.66,0,0,1-.27.5673,1.296,1.296,0,0,1-.7833.21,1.67,1.67,0,0,1-1.1369-.314,1.2817,1.2817,0,0,1-.3387-.984v-.0979H173.47v.0979a2.881,2.881,0,0,0,.46,1.612,3.0648,3.0648,0,0,0,1.3645,1.1011,4.9152,4.9152,0,0,0,2.0021.3971,4.0306,4.0306,0,0,0,2.4773-.6872,2.278,2.278,0,0,0,.9206-1.9148,2.6547,2.6547,0,0,0-1.4938-2.3809,8.0932,8.0932,0,0,0-1.5376-.6482,4.5559,4.5559,0,0,1-1.2623-.56.6877.6877,0,0,1-.3287-.5434.68.68,0,0,1,.295-.568,1.38,1.38,0,0,1,.85-.234,1.2134,1.2134,0,0,1,.8376.2749.9776.9776,0,0,1,.3012.772v.098h2.3387v-.098a2.6579,2.6579,0,0,0-.4389-1.5023A2.8366,2.8366,0,0,0,179.03,34.8122Z" transform="translate(0 -0.0759)"/><polygon class="b" points="182.339 36.362 184.966 36.362 184.966 43.618 187.311 43.618 187.311 36.362 189.986 36.362 189.986 34.507 182.339 34.507 182.339 36.362"/><path class="b" d="M201.34,34.9693a4.2588,4.2588,0,0,0-1.8513-.3861h-3.6551v9.11h2.3449V40.6689h1.2735a3.9861,3.9861,0,0,0,2.625-.8034,2.6854,2.6854,0,0,0,.9689-2.16,3.033,3.033,0,0,0-.4466-1.6282A2.9455,2.9455,0,0,0,201.34,34.9693Zm-1.8513,3.8445h-1.31V36.4383h1.3336a1.0911,1.0911,0,0,1,.8468.3472,1.348,1.348,0,0,1,.3115.9324,1.071,1.071,0,0,1-.2974.8106A1.2412,1.2412,0,0,1,199.4889,38.8138Z" transform="translate(0 -0.0759)"/><path class="b" d="M211.8728,38.9647a3.0029,3.0029,0,0,0,.391-1.5926,2.4869,2.4869,0,0,0-.9313-2.0646,4.0283,4.0283,0,0,0-2.54-.7243h-3.6061v9.11h2.3449V40.54h1.0048l1.5735,3.1531h2.46v-.19l-1.8261-3.5554A2.7279,2.7279,0,0,0,211.8728,38.9647Zm-4.3416-2.5326h1.2612a1.1228,1.1228,0,0,1,.8476.2979,1.1732,1.1732,0,0,1,.2851.8379,1.1579,1.1579,0,0,1-.2821.8313,1.133,1.133,0,0,1-.8506.2921h-1.2612Z" transform="translate(0 -0.0759)"/><rect class="b" x="214.704" y="34.5073" width="2.3388" height="9.1102"/><path class="b" d="M222.04,36.8879a1.1826,1.1826,0,0,1,1.0925-.5537,1.6044,1.6044,0,0,1,1.1093.3293,1.5148,1.5148,0,0,1,.3785,1.1l.003.0949h2.3449l-.01-.1068a3.4858,3.4858,0,0,0-1.1538-2.4193,3.955,3.955,0,0,0-2.6724-.878,3.7774,3.7774,0,0,0-2.0357.5506,3.5632,3.5632,0,0,0-1.35,1.56A5.5152,5.5152,0,0,0,219.281,38.9V39.34a4.8419,4.8419,0,0,0,1.0347,3.2975,3.6091,3.6091,0,0,0,2.8408,1.178,4.5039,4.5039,0,0,0,1.9366-.4012,3.1379,3.1379,0,0,0,1.3293-1.1407,3.367,3.367,0,0,0,.5178-1.6922l.0046-.1026h-2.3342l-.0031.0947a1.3982,1.3982,0,0,1-.3834,1.0383,1.566,1.566,0,0,1-1.0676.3241,1.21,1.21,0,0,1-1.1491-.5638,4.2007,4.2007,0,0,1-.3448-1.9892v-.6293A3.79,3.79,0,0,1,222.04,36.8879Z" transform="translate(0 -0.0759)"/><polygon class="b" points="228.952 43.618 235.289 43.618 235.289 41.769 231.297 41.769 231.297 39.834 234.676 39.834 234.676 38.046 231.297 38.046 231.297 36.362 235.301 36.362 235.301 34.507 228.952 34.507 228.952 43.618"/><path class="b" d="M244.1022,37.424v-.098a2.6579,2.6579,0,0,0-.4389-1.5023,2.8366,2.8366,0,0,0-1.226-1.0115,4.276,4.276,0,0,0-1.7637-.3515,4.8742,4.8742,0,0,0-1.8118.3224,2.9012,2.9012,0,0,0-1.2632.9132,2.2034,2.2034,0,0,0-.4515,1.3665,2.6972,2.6972,0,0,0,1.7874,2.4266,11.33,11.33,0,0,0,1.3833.55,4.0889,4.0889,0,0,1,1.143.5291.783.783,0,0,1,.2965.6577.66.66,0,0,1-.27.5673,1.2955,1.2955,0,0,1-.7832.21,1.67,1.67,0,0,1-1.1369-.314,1.2817,1.2817,0,0,1-.3387-.984v-.0979h-2.351v.0979a2.881,2.881,0,0,0,.46,1.612,3.0648,3.0648,0,0,0,1.3645,1.1011,4.9152,4.9152,0,0,0,2.0021.3971,4.0308,4.0308,0,0,0,2.4773-.6872,2.278,2.278,0,0,0,.9206-1.9148,2.6546,2.6546,0,0,0-1.4939-2.3809,8.0892,8.0892,0,0,0-1.5375-.6482,4.5559,4.5559,0,0,1-1.2623-.56.6877.6877,0,0,1-.3287-.5434.68.68,0,0,1,.295-.568,1.38,1.38,0,0,1,.85-.234,1.2134,1.2134,0,0,1,.8376.2749.9775.9775,0,0,1,.3011.772v.098Z" transform="translate(0 -0.0759)"/><path class="c" d="M27.43.42,20.0542,26.1968H25.885l1.2087-5.022,6.9656.0081,1.2394,5.0139H41.182L33.7529.42Zm.7986,16.0059,2.3438-9.735,2.3308,9.735Z" transform="translate(0 -0.0759)"/><polygon class="c" points="12.499 10.457 5.827 10.457 5.827 0.344 0 0.344 0 26.121 5.827 26.121 5.827 15.425 12.499 15.425 12.499 26.121 18.308 26.121 18.308 0.344 12.499 0.344 12.499 10.457"/><path class="c" d="M59.7577,8.364a7.7456,7.7456,0,0,0-2.19-5.8706A8.5866,8.5866,0,0,0,51.4362.42H42.9943V26.1968h5.8273V17.0634h1.8557l3.76,9.1334h6.3871L56.24,15.4986C58.5745,14.0769,59.7577,11.6786,59.7577,8.364Zm-6.5042,2.8646a2.269,2.269,0,0,1-1.9548.849H48.8216V5.406h2.5632c1.7369,0,2.5459,1.0709,2.5459,3.37A4.0106,4.0106,0,0,1,53.2535,11.2286Z" transform="translate(0 -0.0759)"/><path class="c" d="M119.66,8.364a7.7456,7.7456,0,0,0-2.19-5.8706A8.5866,8.5866,0,0,0,111.3389.42H102.897V26.1968h5.8274V17.0634H110.58l3.76,9.1334h6.3871l-4.5845-10.6982C118.4773,14.0769,119.66,11.6786,119.66,8.364Zm-6.5041,2.8646a2.2693,2.2693,0,0,1-1.9548.849h-2.4771V5.406h2.5631c1.737,0,2.546,1.0709,2.546,3.37A4.0106,4.0106,0,0,1,113.1563,11.2286Z" transform="translate(0 -0.0759)"/><path class="c" d="M76.6549,12.8876a5.3934,5.3934,0,0,0,1.6933-1.7447A6.5672,6.5672,0,0,0,79.2468,7.66a6.7522,6.7522,0,0,0-2.1706-5.4036A9.3205,9.3205,0,0,0,70.8738.42H62.7582V26.1968h8.6649a8.6309,8.6309,0,0,0,6.0592-1.9581,7.5294,7.5294,0,0,0,2.1249-5.78,7.0254,7.0254,0,0,0-.9692-3.7866A4.7239,4.7239,0,0,0,76.6549,12.8876Zm-8.07-7.4816h2.2887a2.586,2.586,0,0,1,1.9467.614,3.1952,3.1952,0,0,1,.5822,2.1724c0,1.8307-.82,2.6834-2.58,2.6834H68.5851Zm4.5994,15.1206a2.148,2.148,0,0,1-1.7614.7016h-2.838V15.3293h3.1642c.8713.031,2.0481.3824,2.0481,3.0611A3.266,3.266,0,0,1,73.1845,20.5266Z" transform="translate(0 -0.0759)"/><path class="c" d="M90.9046.0769a8.5263,8.5263,0,0,0-6.9278,3.0347c-1.6423,1.991-2.4751,4.7806-2.4751,8.2913v4.2748c.0234,3.3915.8758,6.0732,2.5339,7.9734a8.72,8.72,0,0,0,6.9032,2.889,8.6286,8.6286,0,0,0,6.8978-2.9176c1.64-1.9185,2.4713-4.6319,2.4713-8.0649V11.2827c-.0238-3.5025-.875-6.2693-2.53-8.2264A8.5663,8.5663,0,0,0,90.9046.0769Zm3.5588,15.6353a8.8041,8.8041,0,0,1-.9182,4.5043,2.8457,2.8457,0,0,1-2.6064,1.3378,2.9294,2.9294,0,0,1-2.6916-1.3716,8.9889,8.9889,0,0,1-.9186-4.6251V11.111A9.4347,9.4347,0,0,1,88.2679,6.48a3.1621,3.1621,0,0,1,5.2876.0545,9.9654,9.9654,0,0,1,.9079,4.8338Z" transform="translate(0 -0.0759)"/><polygon class="c" points="130.762 26.12 136.589 26.12 136.589 15.922 144.435 15.922 144.435 10.953 136.589 10.953 136.589 5.329 145.38 5.329 145.38 0.343 130.762 0.343 130.762 26.12"/><polygon class="c" points="173.371 15.304 181.235 15.304 181.235 10.456 173.371 10.456 173.371 5.329 182.642 5.329 182.642 0.343 167.544 0.343 167.544 26.12 182.677 26.12 182.677 21.151 173.371 21.151 173.371 15.304"/><rect class="c" x="185.594" y="0.3433" width="5.827" height="25.7766"/><path class="c" d="M200.7019,6.3539a3.4286,3.4286,0,0,1,4.8234-.57,5.412,5.412,0,0,1,.8954,3.0244l.0308.3562H212.14l-.032-.4194c-.2242-2.9458-1.0693-5.15-2.512-6.5506C208.1476.7888,205.9911.0759,203.1863.0759a8.3772,8.3772,0,0,0-6.887,2.9343c-1.5555,1.9226-2.3443,4.6824-2.3443,8.2027v4.4982c.0468,3.4855.9062,6.1849,2.5542,8.0283a8.9228,8.9228,0,0,0,6.9861,2.8,13.5247,13.5247,0,0,0,4.7813-.8234,9.6341,9.6341,0,0,0,3.7288-2.478l.1034-.112v-10.86H202.728v4.5908h3.5367v3.99l-.2785.1928a4.0274,4.0274,0,0,1-2.1989.5317,3.3254,3.3254,0,0,1-3.0307-1.378,9.0009,9.0009,0,0,1-.9575-4.7563V10.904A9.2106,9.2106,0,0,1,200.7019,6.3539Z" transform="translate(0 -0.0759)"/><polygon class="c" points="227.416 10.456 220.744 10.456 220.744 0.343 214.917 0.343 214.917 26.12 220.744 26.12 220.744 15.424 227.416 15.424 227.416 26.12 233.225 26.12 233.225 0.343 227.416 0.343 227.416 10.456"/><polygon class="c" points="234.898 0.343 234.898 5.329 240.975 5.329 240.975 26.12 246.819 26.12 246.819 5.329 253 5.329 253 0.343 234.898 0.343"/><path class="c" d="M164.8341,8.363a7.7456,7.7456,0,0,0-2.19-5.8706A8.5867,8.5867,0,0,0,156.5125.4192h-8.4418V26.1958h5.8273V17.0623h1.8556l3.76,9.1335h6.3871l-4.5844-10.6982C163.6509,14.0758,164.8341,11.6776,164.8341,8.363ZM158.33,11.2276a2.269,2.269,0,0,1-1.9548.8489H153.898V5.405h2.5631c1.737,0,2.546,1.0708,2.546,3.37A4.0107,4.0107,0,0,1,158.33,11.2276Z" transform="translate(0 -0.0759)"/></svg>